<svg width="44" height="44" viewBox="0 0 44 44" fill="none" xmlns="http://www.w3.org/2000/svg">
<g clip-path="url(#clip0_95_705)">
<path fill-rule="evenodd" clip-rule="evenodd" d="M0 20.1117C0 30.055 7.76329 38.3233 17.9167 40V25.555H12.5417V20H17.9167V15.555C17.9167 10.555 21.38 7.77833 26.2784 7.77833C27.83 7.77833 29.5034 8 31.055 8.22167V13.3333H28.3083C25.68 13.3333 25.0833 14.555 25.0833 16.1117V20H30.8167L29.8617 25.555H25.0833V40C35.2367 38.3233 43 30.0567 43 20.1117C43 9.05 33.325 0 21.5 0C9.675 0 0 9.05 0 20.1117Z" fill="black"/>
</g>
<defs>
<clipPath id="clip0_95_705">
<rect width="44" height="44" fill="white"/>
</clipPath>
</defs>
</svg>
