<svg width="24" height="17" viewBox="0 0 24 17" fill="none" xmlns="http://www.w3.org/2000/svg">
<path d="M18.8908 16.3733C19.1703 16.6466 19.5983 16.6643 19.8777 16.3733C20.1659 16.0734 20.1485 15.6501 19.8777 15.3767L5.0655 0.428576C4.79476 0.155188 4.34061 0.146369 4.06987 0.428576C3.80786 0.693145 3.80786 1.15173 4.06987 1.4163L18.8908 16.3733ZM12.0087 0.931256C10.4803 0.931256 9.10044 1.19583 7.81659 1.62795L9.23144 3.05663C10.1135 2.80969 11.0218 2.65977 12.0087 2.65977C17.5633 2.65977 21.9738 7.53665 21.9738 8.56847C21.9738 9.26517 20.5764 11.0554 18.3493 12.4665L19.6594 13.7981C22.4017 11.9814 24 9.60911 24 8.56847C24 6.76059 19.179 0.931256 12.0087 0.931256ZM12.0087 16.2145C13.6157 16.2145 15.0917 15.9323 16.4279 15.4649L15.0131 14.0362C14.0699 14.3184 13.0742 14.486 12.0087 14.486C6.43668 14.486 2.0262 9.80313 2.0262 8.56847C2.0262 7.9776 3.50218 6.08153 5.869 4.59994L4.53275 3.25064C1.68559 5.08499 0 7.51902 0 8.56847C0 10.3764 4.92576 16.2145 12.0087 16.2145ZM16.3493 10.2529C16.5764 9.74139 16.6987 9.15934 16.6987 8.56847C16.6987 5.9316 14.6114 3.84151 12.0087 3.84151C11.4061 3.84151 10.8472 3.96498 10.3319 4.17663L16.3493 10.2529ZM12.0087 13.3043C12.6725 13.3043 13.3013 13.1455 13.869 12.8721L7.72926 6.6724C7.44978 7.24563 7.30131 7.88941 7.30131 8.57729C7.31004 11.1436 9.38865 13.3043 12.0087 13.3043Z" fill="black" fill-opacity="0.25"/>
</svg>
