<svg width="44" height="44" viewBox="0 0 44 44" fill="none" xmlns="http://www.w3.org/2000/svg">
<g clip-path="url(#clip0_95_691)">
<path fill-rule="evenodd" clip-rule="evenodd" d="M22 0C9.84867 0 0 8.955 0 20C0 31.045 9.84867 40 22 40C34.1495 40 44 31.045 44 20C44 8.955 34.1495 0 22 0ZM22.2567 31.6967C15.1653 31.6967 9.42333 26.4633 9.42333 20C9.42333 13.5367 15.1653 8.30333 22.2567 8.30333C25.7217 8.30333 28.6183 9.465 30.8403 11.3517L27.2213 14.6483V14.6417C25.8738 13.4717 24.1652 12.8717 22.2567 12.8717C18.0217 12.8717 14.5805 16.1317 14.5805 19.9933C14.5805 23.8517 18.0217 27.1217 22.2567 27.1217C26.0993 27.1217 28.7137 25.1183 29.2527 22.3683H22.2567V17.8067H34.3292C34.4905 18.59 34.5767 19.4067 34.5767 20.2633C34.5767 26.9467 29.6688 31.6967 22.2567 31.6967Z" fill="black"/>
</g>
<defs>
<clipPath id="clip0_95_691">
<rect width="44" height="44" fill="white"/>
</clipPath>
</defs>
</svg>
