<svg width="154" height="104" viewBox="0 0 154 104" fill="white" xmlns="http://www.w3.org/2000/svg">
<path d="M27.5283 52C27.5283 50.4676 28.1074 48.998 29.1383 47.9145C30.1691 46.831 31.5673 46.2222 33.0251 46.2222H44.0188V34.6667C44.0188 33.1343 44.598 31.6647 45.6288 30.5812C46.6597 29.4976 48.0578 28.8889 49.5157 28.8889C50.9736 28.8889 52.3717 29.4976 53.4026 30.5812C54.4334 31.6647 55.0126 33.1343 55.0126 34.6667V46.2222H66.0063C67.4641 46.2222 68.8623 46.831 69.8932 47.9145C70.924 48.998 71.5031 50.4676 71.5031 52C71.5031 53.5324 70.924 55.002 69.8932 56.0855C68.8623 57.169 67.4641 57.7778 66.0063 57.7778H55.0126V69.3333C55.0126 70.8657 54.4334 72.3353 53.4026 73.4188C52.3717 74.5024 50.9736 75.1111 49.5157 75.1111C48.0578 75.1111 46.6597 74.5024 45.6288 73.4188C44.598 72.3353 44.0188 70.8657 44.0188 69.3333V57.7778H33.0251C31.5673 57.7778 30.1691 57.169 29.1383 56.0855C28.1074 55.002 27.5283 53.5324 27.5283 52ZM109.926 69.3333C109.926 72.3981 108.768 75.3373 106.706 77.5043C104.644 79.6714 101.848 80.8889 98.9325 80.8889C96.0167 80.8889 93.2205 79.6714 91.1587 77.5043C89.097 75.3373 87.9388 72.3981 87.9388 69.3333C87.9388 66.2686 89.097 63.3294 91.1587 61.1623C93.2205 58.9952 96.0167 57.7778 98.9325 57.7778C101.848 57.7778 104.644 58.9952 106.706 61.1623C108.768 63.3294 109.926 66.2686 109.926 69.3333ZM109.926 46.2222C112.842 46.2222 115.638 45.0048 117.7 42.8377C119.762 40.6706 120.92 37.7314 120.92 34.6667C120.92 31.6019 119.762 28.6627 117.7 26.4957C115.638 24.3286 112.842 23.1111 109.926 23.1111C107.01 23.1111 104.214 24.3286 102.152 26.4957C100.091 28.6627 98.9325 31.6019 98.9325 34.6667C98.9325 37.7314 100.091 40.6706 102.152 42.8377C104.214 45.0048 107.01 46.2222 109.926 46.2222ZM0 52C0 38.2087 5.21219 24.9823 14.4899 15.2304C23.7677 5.47855 36.351 0 49.4717 0H104.528C117.649 0 130.232 5.47855 139.51 15.2304C148.788 24.9823 154 38.2087 154 52C154 65.7913 148.788 79.0177 139.51 88.7695C130.232 98.5214 117.649 104 104.528 104H49.4717C36.351 104 23.7677 98.5214 14.4899 88.7695C5.21219 79.0177 0 65.7913 0 52ZM49.4717 11.5556C39.2667 11.5556 29.4797 15.8167 22.2637 23.4015C15.0476 30.9863 10.9937 41.2735 10.9937 52C10.9937 62.7265 15.0476 73.0137 22.2637 80.5985C29.4797 88.1833 39.2667 92.4444 49.4717 92.4444H104.528C114.733 92.4444 124.52 88.1833 131.736 80.5985C138.952 73.0137 143.006 62.7265 143.006 52C143.006 41.2735 138.952 30.9863 131.736 23.4015C124.52 15.8167 114.733 11.5556 104.528 11.5556H49.4717Z" fill="white"/>
</svg>