<svg width="17" height="17" viewBox="0 0 17 17" fill="none" xmlns="http://www.w3.org/2000/svg">
<path d="M8.5 1.32812C7.08154 1.32813 5.69493 1.74875 4.51552 2.5368C3.33611 3.32486 2.41688 4.44495 1.87405 5.75544C1.33123 7.06593 1.18921 8.50796 1.46593 9.89916C1.74266 11.2904 2.42572 12.5683 3.42872 13.5713C4.43173 14.5743 5.70963 15.2573 7.10084 15.5341C8.49205 15.8108 9.93407 15.6688 11.2446 15.1259C12.555 14.5831 13.6751 13.6639 14.4632 12.4845C15.2513 11.3051 15.6719 9.91846 15.6719 8.5C15.6701 6.59844 14.9139 4.77527 13.5693 3.43066C12.2247 2.08605 10.4016 1.32988 8.5 1.32812ZM8.5 14.0781C7.39675 14.0781 6.31828 13.751 5.40096 13.138C4.48365 12.5251 3.76868 11.6539 3.34649 10.6347C2.92429 9.61539 2.81383 8.49381 3.02906 7.41176C3.24429 6.32971 3.77556 5.33578 4.55567 4.55567C5.33579 3.77555 6.32971 3.24429 7.41176 3.02906C8.49382 2.81382 9.61539 2.92429 10.6347 3.34648C11.6539 3.76868 12.5251 4.48364 13.138 5.40096C13.751 6.31828 14.0781 7.39675 14.0781 8.5C14.0764 9.97887 13.4881 11.3967 12.4424 12.4424C11.3967 13.4881 9.97887 14.0764 8.5 14.0781V14.0781ZM11.1895 6.93945L9.62891 8.5L11.1895 10.0605C11.2637 10.1346 11.3227 10.2225 11.3629 10.3194C11.4031 10.4163 11.4238 10.5201 11.4238 10.625C11.4238 10.7299 11.4031 10.8337 11.3629 10.9306C11.3227 11.0275 11.2637 11.1154 11.1895 11.1895C11.0391 11.3379 10.8363 11.4211 10.625 11.4211C10.4137 11.4211 10.2109 11.3379 10.0605 11.1895L8.5 9.62891L6.93946 11.1895C6.78908 11.3379 6.58629 11.4211 6.375 11.4211C6.16371 11.4211 5.96093 11.3379 5.81055 11.1895C5.73626 11.1154 5.67731 11.0275 5.63709 10.9306C5.59687 10.8337 5.57617 10.7299 5.57617 10.625C5.57617 10.5201 5.59687 10.4163 5.63709 10.3194C5.67731 10.2225 5.73626 10.1346 5.81055 10.0605L7.3711 8.5L5.81055 6.93945C5.66085 6.78975 5.57675 6.58671 5.57675 6.375C5.57675 6.16329 5.66085 5.96025 5.81055 5.81055C5.96025 5.66084 6.16329 5.57674 6.375 5.57674C6.58671 5.57674 6.78975 5.66084 6.93946 5.81055L8.5 7.37109L10.0605 5.81055C10.2103 5.66084 10.4133 5.57674 10.625 5.57674C10.8367 5.57674 11.0398 5.66084 11.1895 5.81055C11.3392 5.96025 11.4233 6.16329 11.4233 6.375C11.4233 6.58671 11.3392 6.78975 11.1895 6.93945V6.93945Z" fill="#A80000"/>
</svg>
