<svg width="17" height="17" viewBox="0 0 17 17" fill="none" xmlns="http://www.w3.org/2000/svg">
<path d="M8.50002 9.91699C8.3249 9.91699 8.15372 9.96892 8.00811 10.0662C7.86251 10.1635 7.74902 10.3018 7.68201 10.4636C7.61499 10.6254 7.59746 10.8034 7.63162 10.9751C7.66578 11.1469 7.75011 11.3047 7.87394 11.4285C7.99777 11.5523 8.15553 11.6366 8.32729 11.6708C8.49904 11.705 8.67707 11.6874 8.83886 11.6204C9.00065 11.5534 9.13893 11.4399 9.23622 11.2943C9.33351 11.1487 9.38544 10.9775 9.38544 10.8024C9.38544 10.5676 9.29216 10.3424 9.12611 10.1763C8.96006 10.0103 8.73485 9.91699 8.50002 9.91699V9.91699ZM8.50002 8.85449C8.68789 8.85449 8.86805 8.77986 9.00089 8.64703C9.13373 8.51419 9.20836 8.33402 9.20836 8.14616V6.02116C9.20836 5.8333 9.13373 5.65313 9.00089 5.52029C8.86805 5.38745 8.68789 5.31283 8.50002 5.31283C8.31216 5.31283 8.13199 5.38745 7.99916 5.52029C7.86632 5.65313 7.79169 5.8333 7.79169 6.02116V8.14616C7.79169 8.33402 7.86632 8.51419 7.99916 8.64703C8.13199 8.77986 8.31216 8.85449 8.50002 8.85449ZM8.50002 1.41699C7.09907 1.41699 5.72958 1.83242 4.56473 2.61075C3.39989 3.38908 2.492 4.49534 1.95588 5.78965C1.41976 7.08396 1.27948 8.50818 1.55279 9.88221C1.82611 11.2562 2.50073 12.5184 3.49135 13.509C4.48197 14.4996 5.7441 15.1742 7.11813 15.4476C8.49217 15.7209 9.91639 15.5806 11.2107 15.0445C12.505 14.5084 13.6113 13.6005 14.3896 12.4356C15.1679 11.2708 15.5834 9.90128 15.5834 8.50033C15.5813 6.62234 14.8344 4.82187 13.5064 3.49393C12.1785 2.16599 10.378 1.41905 8.50002 1.41699V1.41699ZM8.50002 14.167C7.37926 14.167 6.28367 13.8346 5.35179 13.212C4.41991 12.5893 3.6936 11.7043 3.26471 10.6689C2.83581 9.63342 2.72359 8.49404 2.94224 7.39481C3.16089 6.29559 3.70059 5.28588 4.49308 4.49339C5.28558 3.70089 6.29529 3.16119 7.39451 2.94254C8.49374 2.72389 9.63311 2.83611 10.6686 3.26501C11.704 3.6939 12.589 4.42022 13.2117 5.35209C13.8343 6.28397 14.1667 7.37956 14.1667 8.50033C14.1648 10.0026 13.5672 11.4429 12.5049 12.5052C11.4426 13.5675 10.0023 14.1651 8.50002 14.167Z" fill="black"/>
</svg>
