<svg width="332" height="103" viewBox="0 0 332 103" fill="none" xmlns="http://www.w3.org/2000/svg">
<g filter="url(#filter0_d_54_6)">
<path d="M15.7978 71.5C15.7978 70.8075 16.046 70.1433 16.4878 69.6537C16.9296 69.164 17.5288 68.8889 18.1536 68.8889H22.8652V63.6667C22.8652 62.9742 23.1134 62.31 23.5552 61.8203C23.997 61.3307 24.5962 61.0556 25.221 61.0556C25.8458 61.0556 26.445 61.3307 26.8868 61.8203C27.3286 62.31 27.5768 62.9742 27.5768 63.6667V68.8889H32.2884C32.9132 68.8889 33.5124 69.164 33.9542 69.6537C34.396 70.1433 34.6442 70.8075 34.6442 71.5C34.6442 72.1925 34.396 72.8567 33.9542 73.3463C33.5124 73.836 32.9132 74.1111 32.2884 74.1111H27.5768V79.3333C27.5768 80.0258 27.3286 80.69 26.8868 81.1797C26.445 81.6693 25.8458 81.9444 25.221 81.9444C24.5962 81.9444 23.997 81.6693 23.5552 81.1797C23.1134 80.69 22.8652 80.0258 22.8652 79.3333V74.1111H18.1536C17.5288 74.1111 16.9296 73.836 16.4878 73.3463C16.046 72.8567 15.7978 72.1925 15.7978 71.5ZM51.1112 79.3333C51.1112 80.7184 50.6148 82.0466 49.7312 83.026C48.8476 84.0054 47.6492 84.5556 46.3996 84.5556C45.15 84.5556 43.9516 84.0054 43.068 83.026C42.1844 82.0466 41.688 80.7184 41.688 79.3333C41.688 77.9483 42.1844 76.62 43.068 75.6407C43.9516 74.6613 45.15 74.1111 46.3996 74.1111C47.6492 74.1111 48.8476 74.6613 49.7312 75.6407C50.6148 76.62 51.1112 77.9483 51.1112 79.3333V79.3333ZM51.1112 68.8889C52.3608 68.8889 53.5592 68.3387 54.4428 67.3593C55.3264 66.38 55.8228 65.0517 55.8228 63.6667C55.8228 62.2816 55.3264 60.9534 54.4428 59.974C53.5592 58.9946 52.3608 58.4444 51.1112 58.4444C49.8616 58.4444 48.6632 58.9946 47.7796 59.974C46.896 60.9534 46.3996 62.2816 46.3996 63.6667C46.3996 65.0517 46.896 66.38 47.7796 67.3593C48.6632 68.3387 49.8616 68.8889 51.1112 68.8889V68.8889ZM4 71.5C4 65.2674 6.23379 59.2901 10.21 54.883C14.1862 50.4759 19.579 48 25.2022 48H48.7978C54.421 48 59.8139 50.4759 63.79 54.883C67.7662 59.2901 70 65.2674 70 71.5C70 77.7326 67.7662 83.7099 63.79 88.117C59.8139 92.5241 54.421 95 48.7978 95H25.2022C19.579 95 14.1862 92.5241 10.21 88.117C6.23379 83.7099 4 77.7326 4 71.5V71.5ZM25.2022 53.2222C20.8286 53.2222 16.6342 55.1479 13.5416 58.5757C10.449 62.0034 8.71159 66.6524 8.71159 71.5C8.71159 76.3476 10.449 80.9966 13.5416 84.4243C16.6342 87.8521 20.8286 89.7778 25.2022 89.7778H48.7978C53.1714 89.7778 57.3658 87.8521 60.4584 84.4243C63.551 80.9966 65.2884 76.3476 65.2884 71.5C65.2884 66.6524 63.551 62.0034 60.4584 58.5757C57.3658 55.1479 53.1714 53.2222 48.7978 53.2222H25.2022V53.2222Z" fill="white"/>
</g>
<g filter="url(#filter1_d_54_6)">
<path d="M33.9602 9.90909V39H27.9943L16.4176 22.2102H16.233V39H9.2017V9.90909H15.2528L26.7017 26.6705H26.9432V9.90909H33.9602ZM64.7876 20.4489H57.6854C57.5907 19.7197 57.3965 19.0616 57.103 18.4744C56.8094 17.8873 56.4212 17.3854 55.9382 16.9688C55.4553 16.5521 54.8823 16.2348 54.2195 16.017C53.5661 15.7898 52.8416 15.6761 52.0462 15.6761C50.6352 15.6761 49.4183 16.0218 48.3956 16.7131C47.3823 17.4044 46.6011 18.4034 46.0518 19.7102C45.5121 21.017 45.2422 22.5985 45.2422 24.4545C45.2422 26.3864 45.5168 28.0057 46.0661 29.3125C46.6248 30.6098 47.406 31.59 48.4098 32.2528C49.4231 32.9062 50.621 33.233 52.0036 33.233C52.7801 33.233 53.4856 33.1335 54.12 32.9347C54.764 32.7358 55.3274 32.447 55.8104 32.0682C56.3028 31.6799 56.7053 31.2112 57.0178 30.6619C57.3397 30.1032 57.5623 29.4735 57.6854 28.7727L64.7876 28.8153C64.6645 30.1032 64.2905 31.3722 63.6655 32.6222C63.05 33.8722 62.2024 35.0133 61.1229 36.0455C60.0433 37.0682 58.727 37.8826 57.174 38.4886C55.6304 39.0947 53.8596 39.3977 51.8615 39.3977C49.2289 39.3977 46.871 38.8201 44.7876 37.6648C42.7138 36.5 41.0755 34.8049 39.8729 32.5795C38.6702 30.3542 38.0689 27.6458 38.0689 24.4545C38.0689 21.2538 38.6797 18.5407 39.9013 16.3153C41.1229 14.09 42.7753 12.3996 44.8587 11.2443C46.942 10.089 49.2763 9.51136 51.8615 9.51136C53.6229 9.51136 55.2517 9.75758 56.7479 10.25C58.2441 10.733 59.5604 11.4432 60.6967 12.3807C61.8331 13.3087 62.7564 14.4498 63.4666 15.804C64.1768 17.1581 64.6172 18.7064 64.7876 20.4489Z" fill="white"/>
</g>
<g filter="url(#filter2_d_54_6)">
<path d="M115.818 38C115.193 36.0871 114.369 34.3731 113.347 32.858C112.343 31.3239 111.14 30.017 109.739 28.9375C108.356 27.858 106.784 27.0341 105.023 26.4659C103.261 25.8977 101.33 25.6136 99.2273 25.6136C95.7803 25.6136 92.6458 26.5038 89.8239 28.2841C87.0019 30.0644 84.7576 32.6875 83.0909 36.1534C81.4242 39.6193 80.5909 43.8712 80.5909 48.9091C80.5909 53.947 81.4337 58.1989 83.1193 61.6648C84.8049 65.1307 87.0871 67.7538 89.9659 69.5341C92.8447 71.3144 96.0833 72.2045 99.6818 72.2045C103.015 72.2045 105.951 71.4943 108.489 70.0739C111.045 68.6345 113.034 66.608 114.455 63.9943C115.894 61.3617 116.614 58.2652 116.614 54.7045L118.773 55.1591H101.273V48.9091H123.432V55.1591C123.432 59.9508 122.409 64.1174 120.364 67.6591C118.337 71.2008 115.534 73.947 111.955 75.8977C108.394 77.8295 104.303 78.7955 99.6818 78.7955C94.5303 78.7955 90.0038 77.5833 86.1023 75.1591C82.2197 72.7348 79.1894 69.2879 77.0114 64.8182C74.8523 60.3485 73.7727 55.0455 73.7727 48.9091C73.7727 44.3068 74.3883 40.1686 75.6193 36.4943C76.8693 32.8011 78.6307 29.6572 80.9034 27.0625C83.1761 24.4678 85.8655 22.4792 88.9716 21.0966C92.0777 19.714 95.4962 19.0227 99.2273 19.0227C102.295 19.0227 105.155 19.4867 107.807 20.4148C110.477 21.3239 112.854 22.6212 114.938 24.3068C117.04 25.9735 118.792 27.9716 120.193 30.3011C121.595 32.6117 122.561 35.178 123.091 38H115.818ZM147.43 79.0227C144.665 79.0227 142.156 78.5019 139.902 77.4602C137.648 76.3996 135.858 74.875 134.533 72.8864C133.207 70.8788 132.544 68.4545 132.544 65.6136C132.544 63.1136 133.036 61.0871 134.021 59.5341C135.006 57.9621 136.322 56.7311 137.97 55.8409C139.618 54.9508 141.436 54.2879 143.425 53.8523C145.432 53.3977 147.449 53.0379 149.476 52.7727C152.127 52.4318 154.277 52.1761 155.925 52.0057C157.591 51.8163 158.804 51.5038 159.561 51.0682C160.338 50.6326 160.726 49.875 160.726 48.7955V48.5682C160.726 45.7652 159.959 43.5871 158.425 42.0341C156.91 40.4811 154.608 39.7045 151.521 39.7045C148.321 39.7045 145.811 40.4053 143.993 41.8068C142.175 43.2083 140.896 44.7045 140.158 46.2955L133.794 44.0227C134.93 41.3712 136.446 39.3068 138.339 37.8295C140.252 36.3333 142.336 35.2917 144.589 34.7045C146.862 34.0985 149.097 33.7955 151.294 33.7955C152.696 33.7955 154.305 33.9659 156.124 34.3068C157.961 34.6288 159.732 35.3011 161.436 36.3239C163.16 37.3466 164.589 38.8902 165.726 40.9545C166.862 43.0189 167.43 45.7841 167.43 49.25V78H160.726V72.0909H160.385C159.93 73.0379 159.173 74.0511 158.112 75.1307C157.052 76.2102 155.641 77.1288 153.879 77.8864C152.118 78.6439 149.968 79.0227 147.43 79.0227ZM148.453 73C151.105 73 153.339 72.4792 155.158 71.4375C156.995 70.3958 158.377 69.0511 159.305 67.4034C160.252 65.7557 160.726 64.0227 160.726 62.2045V56.0682C160.442 56.4091 159.817 56.7216 158.851 57.0057C157.904 57.2708 156.805 57.5076 155.555 57.7159C154.324 57.9053 153.122 58.0758 151.947 58.2273C150.792 58.3598 149.855 58.4735 149.135 58.5682C147.393 58.7955 145.764 59.1648 144.249 59.6761C142.752 60.1686 141.54 60.9167 140.612 61.9205C139.703 62.9053 139.249 64.25 139.249 65.9545C139.249 68.2841 140.11 70.0455 141.834 71.2386C143.576 72.4129 145.783 73 148.453 73ZM179.668 78V34.3636H186.145V41.1818H186.713C187.622 38.8523 189.09 37.0436 191.116 35.7557C193.143 34.4489 195.577 33.7955 198.418 33.7955C201.296 33.7955 203.692 34.4489 205.605 35.7557C207.537 37.0436 209.043 38.8523 210.122 41.1818H210.577C211.694 38.928 213.37 37.1383 215.605 35.8125C217.84 34.4678 220.52 33.7955 223.645 33.7955C227.546 33.7955 230.738 35.017 233.219 37.4602C235.7 39.8845 236.94 43.6629 236.94 48.7955V78H230.236V48.7955C230.236 45.5758 229.355 43.2746 227.594 41.892C225.832 40.5095 223.759 39.8182 221.372 39.8182C218.304 39.8182 215.927 40.7462 214.241 42.6023C212.556 44.4394 211.713 46.7689 211.713 49.5909V78H204.895V48.1136C204.895 45.6326 204.09 43.6345 202.48 42.1193C200.87 40.5852 198.796 39.8182 196.259 39.8182C194.516 39.8182 192.887 40.2822 191.372 41.2102C189.876 42.1383 188.664 43.4261 187.736 45.0739C186.827 46.7027 186.372 48.5871 186.372 50.7273V78H179.668ZM267.494 78.9091C263.29 78.9091 259.663 77.9811 256.614 76.125C253.583 74.25 251.244 71.6364 249.597 68.2841C247.968 64.9129 247.153 60.9924 247.153 56.5227C247.153 52.053 247.968 48.1136 249.597 44.7045C251.244 41.2765 253.536 38.6061 256.472 36.6932C259.426 34.7614 262.873 33.7955 266.812 33.7955C269.085 33.7955 271.33 34.1742 273.545 34.9318C275.761 35.6894 277.778 36.9205 279.597 38.625C281.415 40.3106 282.864 42.5455 283.943 45.3295C285.023 48.1136 285.562 51.5417 285.562 55.6136V58.4545H251.926V52.6591H278.744C278.744 50.197 278.252 48 277.267 46.0682C276.301 44.1364 274.919 42.6117 273.119 41.4943C271.339 40.3769 269.237 39.8182 266.812 39.8182C264.142 39.8182 261.831 40.4811 259.881 41.8068C257.949 43.1136 256.462 44.8182 255.42 46.9205C254.379 49.0227 253.858 51.2765 253.858 53.6818V57.5455C253.858 60.8409 254.426 63.6345 255.562 65.9261C256.718 68.1989 258.318 69.9318 260.364 71.125C262.409 72.2992 264.786 72.8864 267.494 72.8864C269.256 72.8864 270.847 72.6402 272.267 72.1477C273.706 71.6364 274.947 70.8788 275.989 69.875C277.03 68.8523 277.835 67.5833 278.403 66.0682L284.881 67.8864C284.199 70.0833 283.053 72.0152 281.443 73.6818C279.833 75.3295 277.845 76.6174 275.477 77.5455C273.11 78.4545 270.449 78.9091 267.494 78.9091ZM326.67 44.1364L320.648 45.8409C320.269 44.8371 319.71 43.8617 318.972 42.9148C318.252 41.9489 317.267 41.1534 316.017 40.5284C314.767 39.9034 313.167 39.5909 311.216 39.5909C308.545 39.5909 306.32 40.2064 304.54 41.4375C302.778 42.6496 301.898 44.1932 301.898 46.0682C301.898 47.7348 302.504 49.0511 303.716 50.017C304.928 50.983 306.822 51.7879 309.398 52.4318L315.875 54.0227C319.777 54.9697 322.684 56.4186 324.597 58.3693C326.509 60.3011 327.466 62.7917 327.466 65.8409C327.466 68.3409 326.746 70.5758 325.307 72.5455C323.886 74.5152 321.898 76.0682 319.341 77.2045C316.784 78.3409 313.811 78.9091 310.42 78.9091C305.97 78.9091 302.286 77.9432 299.369 76.0114C296.453 74.0795 294.606 71.2576 293.83 67.5455L300.193 65.9545C300.799 68.303 301.945 70.0644 303.631 71.2386C305.335 72.4129 307.561 73 310.307 73C313.432 73 315.913 72.3371 317.75 71.0114C319.606 69.6667 320.534 68.0568 320.534 66.1818C320.534 64.6667 320.004 63.3977 318.943 62.375C317.883 61.3333 316.254 60.5568 314.057 60.0455L306.784 58.3409C302.788 57.3939 299.852 55.9261 297.977 53.9375C296.121 51.9299 295.193 49.4205 295.193 46.4091C295.193 43.947 295.884 41.7689 297.267 39.875C298.669 37.9811 300.572 36.4943 302.977 35.4148C305.402 34.3352 308.148 33.7955 311.216 33.7955C315.534 33.7955 318.924 34.7424 321.386 36.6364C323.867 38.5303 325.629 41.0303 326.67 44.1364Z" fill="#FBFDFE"/>
</g>
<defs>
<filter id="filter0_d_54_6" x="0" y="48" width="74" height="55" filterUnits="userSpaceOnUse" color-interpolation-filters="sRGB">
<feFlood flood-opacity="0" result="BackgroundImageFix"/>
<feColorMatrix in="SourceAlpha" type="matrix" values="0 0 0 0 0 0 0 0 0 0 0 0 0 0 0 0 0 0 127 0" result="hardAlpha"/>
<feOffset dy="4"/>
<feGaussianBlur stdDeviation="2"/>
<feComposite in2="hardAlpha" operator="out"/>
<feColorMatrix type="matrix" values="0 0 0 0 0 0 0 0 0 0 0 0 0 0 0 0 0 0 0.25 0"/>
<feBlend mode="normal" in2="BackgroundImageFix" result="effect1_dropShadow_54_6"/>
<feBlend mode="normal" in="SourceGraphic" in2="effect1_dropShadow_54_6" result="shape"/>
</filter>
<filter id="filter1_d_54_6" x="5.20166" y="9.51136" width="63.5859" height="37.8864" filterUnits="userSpaceOnUse" color-interpolation-filters="sRGB">
<feFlood flood-opacity="0" result="BackgroundImageFix"/>
<feColorMatrix in="SourceAlpha" type="matrix" values="0 0 0 0 0 0 0 0 0 0 0 0 0 0 0 0 0 0 127 0" result="hardAlpha"/>
<feOffset dy="4"/>
<feGaussianBlur stdDeviation="2"/>
<feComposite in2="hardAlpha" operator="out"/>
<feColorMatrix type="matrix" values="0 0 0 0 0 0 0 0 0 0 0 0 0 0 0 0 0 0 0.25 0"/>
<feBlend mode="normal" in2="BackgroundImageFix" result="effect1_dropShadow_54_6"/>
<feBlend mode="normal" in="SourceGraphic" in2="effect1_dropShadow_54_6" result="shape"/>
</filter>
<filter id="filter2_d_54_6" x="69.7727" y="19.0227" width="261.693" height="68" filterUnits="userSpaceOnUse" color-interpolation-filters="sRGB">
<feFlood flood-opacity="0" result="BackgroundImageFix"/>
<feColorMatrix in="SourceAlpha" type="matrix" values="0 0 0 0 0 0 0 0 0 0 0 0 0 0 0 0 0 0 127 0" result="hardAlpha"/>
<feOffset dy="4"/>
<feGaussianBlur stdDeviation="2"/>
<feComposite in2="hardAlpha" operator="out"/>
<feColorMatrix type="matrix" values="0 0 0 0 0 0 0 0 0 0 0 0 0 0 0 0 0 0 0.25 0"/>
<feBlend mode="normal" in2="BackgroundImageFix" result="effect1_dropShadow_54_6"/>
<feBlend mode="normal" in="SourceGraphic" in2="effect1_dropShadow_54_6" result="shape"/>
</filter>
</defs>
</svg>
