<svg width="1209" height="363" viewBox="0 0 1209 363" fill="none" xmlns="http://www.w3.org/2000/svg">
<path d="M399.568 141C397.224 133.827 394.135 127.399 390.3 121.717C386.536 115.964 382.026 111.064 376.77 107.016C371.585 102.967 365.69 99.8778 359.085 97.7471C352.48 95.6165 345.236 94.5511 337.352 94.5511C324.426 94.5511 312.672 97.8892 302.089 104.565C291.507 111.241 283.091 121.078 276.841 134.075C270.591 147.072 267.466 163.017 267.466 181.909C267.466 200.801 270.626 216.746 276.947 229.743C283.268 242.74 291.827 252.577 302.622 259.253C313.418 265.929 325.563 269.267 339.057 269.267C351.557 269.267 362.565 266.604 372.082 261.277C381.67 255.879 389.128 248.28 394.455 238.479C399.852 228.607 402.551 216.994 402.551 203.642L410.648 205.347H345.023V181.909H428.119V205.347C428.119 223.315 424.284 238.94 416.614 252.222C409.014 265.503 398.503 275.801 385.08 283.116C371.727 290.361 356.386 293.983 339.057 293.983C319.739 293.983 302.764 289.438 288.134 280.347C273.574 271.256 262.21 258.33 254.043 241.568C245.946 224.807 241.898 204.92 241.898 181.909C241.898 164.651 244.206 149.132 248.822 135.354C253.51 121.504 260.115 109.714 268.638 99.9844C277.161 90.2543 287.246 82.7969 298.893 77.6122C310.541 72.4276 323.361 69.8352 337.352 69.8352C348.858 69.8352 359.582 71.5753 369.526 75.0554C379.54 78.4645 388.453 83.3295 396.266 89.6506C404.149 95.9006 410.719 103.393 415.974 112.129C421.23 120.794 424.852 130.418 426.841 141H399.568ZM518.114 294.835C507.745 294.835 498.334 292.882 489.882 288.976C481.431 284.999 474.719 279.281 469.748 271.824C464.776 264.295 462.29 255.205 462.29 244.551C462.29 235.176 464.137 227.577 467.83 221.753C471.523 215.858 476.459 211.241 482.638 207.903C488.817 204.565 495.635 202.08 503.093 200.446C510.621 198.741 518.185 197.392 525.784 196.398C535.728 195.119 543.789 194.161 549.968 193.521C556.218 192.811 560.763 191.639 563.604 190.006C566.516 188.372 567.972 185.531 567.972 181.483V180.631C567.972 170.119 565.096 161.952 559.343 156.128C553.661 150.304 545.032 147.392 533.455 147.392C521.452 147.392 512.042 150.02 505.223 155.276C498.405 160.531 493.611 166.142 490.841 172.108L466.978 163.585C471.239 153.642 476.921 145.901 484.023 140.361C491.196 134.75 499.009 130.844 507.461 128.642C515.983 126.369 524.364 125.233 532.603 125.233C537.858 125.233 543.895 125.872 550.713 127.151C557.603 128.358 564.243 130.879 570.635 134.714C577.098 138.55 582.461 144.338 586.722 152.08C590.983 159.821 593.114 170.19 593.114 183.188V291H567.972V268.841H566.694C564.989 272.392 562.148 276.192 558.171 280.24C554.194 284.288 548.902 287.733 542.297 290.574C535.692 293.415 527.631 294.835 518.114 294.835ZM521.949 272.25C531.892 272.25 540.273 270.297 547.091 266.391C553.98 262.484 559.165 257.442 562.645 251.263C566.196 245.084 567.972 238.585 567.972 231.767V208.756C566.907 210.034 564.563 211.206 560.941 212.271C557.39 213.266 553.27 214.153 548.583 214.935C543.966 215.645 539.456 216.284 535.053 216.852C530.721 217.349 527.205 217.776 524.506 218.131C517.972 218.983 511.864 220.368 506.182 222.286C500.571 224.132 496.026 226.937 492.546 230.702C489.137 234.395 487.432 239.437 487.432 245.83C487.432 254.565 490.664 261.17 497.127 265.645C503.661 270.048 511.935 272.25 521.949 272.25ZM639.004 291V127.364H663.293V152.932H665.424C668.833 144.196 674.337 137.413 681.937 132.584C689.536 127.683 698.663 125.233 709.316 125.233C720.112 125.233 729.096 127.683 736.269 132.584C743.513 137.413 749.16 144.196 753.208 152.932H754.913C759.103 144.48 765.388 137.768 773.769 132.797C782.15 127.754 792.2 125.233 803.918 125.233C818.549 125.233 830.516 129.814 839.82 138.976C849.124 148.067 853.776 162.236 853.776 181.483V291H828.634V181.483C828.634 169.409 825.332 160.78 818.727 155.595C812.121 150.411 804.344 147.818 795.396 147.818C783.89 147.818 774.977 151.298 768.656 158.259C762.335 165.148 759.174 173.884 759.174 184.466V291H733.606V178.926C733.606 169.622 730.587 162.129 724.55 156.447C718.513 150.695 710.737 147.818 701.219 147.818C694.685 147.818 688.577 149.558 682.896 153.038C677.285 156.518 672.739 161.348 669.259 167.527C665.85 173.635 664.146 180.702 664.146 188.727V291H639.004ZM968.354 294.409C952.587 294.409 938.986 290.929 927.551 283.969C916.188 276.938 907.416 267.136 901.237 254.565C895.129 241.923 892.075 227.222 892.075 210.46C892.075 193.699 895.129 178.926 901.237 166.142C907.416 153.287 916.01 143.273 927.018 136.099C938.098 128.855 951.024 125.233 965.797 125.233C974.32 125.233 982.736 126.653 991.045 129.494C999.355 132.335 1006.92 136.952 1013.74 143.344C1020.56 149.665 1025.99 158.045 1030.04 168.486C1034.09 178.926 1036.11 191.781 1036.11 207.051V217.705H909.973V195.972H1010.54C1010.54 186.739 1008.69 178.5 1005 171.256C1001.38 164.011 996.195 158.294 989.447 154.104C982.771 149.913 974.888 147.818 965.797 147.818C955.783 147.818 947.118 150.304 939.803 155.276C932.558 160.176 926.983 166.568 923.077 174.452C919.17 182.335 917.217 190.787 917.217 199.807V214.295C917.217 226.653 919.348 237.129 923.609 245.723C927.942 254.246 933.943 260.744 941.614 265.219C949.284 269.622 958.197 271.824 968.354 271.824C974.959 271.824 980.925 270.901 986.251 269.054C991.649 267.136 996.301 264.295 1000.21 260.531C1004.11 256.696 1007.13 251.937 1009.26 246.256L1033.55 253.074C1031 261.312 1026.7 268.557 1020.66 274.807C1014.63 280.986 1007.17 285.815 998.29 289.295C989.412 292.705 979.433 294.409 968.354 294.409ZM1190.26 164.011L1167.68 170.403C1166.26 166.639 1164.16 162.982 1161.39 159.43C1158.69 155.808 1155 152.825 1150.31 150.482C1145.63 148.138 1139.62 146.966 1132.31 146.966C1122.3 146.966 1113.95 149.274 1107.27 153.891C1100.67 158.436 1097.37 164.224 1097.37 171.256C1097.37 177.506 1099.64 182.442 1104.18 186.064C1108.73 189.686 1115.83 192.705 1125.49 195.119L1149.78 201.085C1164.41 204.636 1175.31 210.07 1182.49 217.385C1189.66 224.629 1193.25 233.969 1193.25 245.403C1193.25 254.778 1190.55 263.159 1185.15 270.545C1179.82 277.932 1172.37 283.756 1162.78 288.017C1153.19 292.278 1142.04 294.409 1129.33 294.409C1112.64 294.409 1098.82 290.787 1087.88 283.543C1076.95 276.298 1070.02 265.716 1067.11 251.795L1090.97 245.83C1093.25 254.636 1097.54 261.241 1103.87 265.645C1110.26 270.048 1118.6 272.25 1128.9 272.25C1140.62 272.25 1149.92 269.764 1156.81 264.793C1163.77 259.75 1167.25 253.713 1167.25 246.682C1167.25 241 1165.26 236.241 1161.29 232.406C1157.31 228.5 1151.2 225.588 1142.96 223.67L1115.69 217.278C1100.7 213.727 1089.7 208.223 1082.66 200.766C1075.7 193.237 1072.22 183.827 1072.22 172.534C1072.22 163.301 1074.82 155.134 1080 148.031C1085.26 140.929 1092.39 135.354 1101.41 131.305C1110.51 127.257 1120.8 125.233 1132.31 125.233C1148.5 125.233 1161.22 128.784 1170.45 135.886C1179.75 142.989 1186.36 152.364 1190.26 164.011Z" fill="#D9411E"/>
<path d="M101.101 86.9091V196H78.7287L35.3161 133.038H34.6236V196H8.25639V86.9091H30.9482L73.8814 149.764H74.7869V86.9091H101.101ZM216.704 126.433H190.07C189.715 123.699 188.987 121.231 187.886 119.029C186.785 116.827 185.329 114.945 183.518 113.383C181.707 111.82 179.559 110.631 177.073 109.814C174.623 108.962 171.906 108.536 168.923 108.536C163.632 108.536 159.069 109.832 155.233 112.424C151.434 115.016 148.504 118.763 146.444 123.663C144.42 128.564 143.408 134.494 143.408 141.455C143.408 148.699 144.438 154.771 146.498 159.672C148.593 164.537 151.523 168.212 155.287 170.698C159.086 173.148 163.579 174.374 168.763 174.374C171.675 174.374 174.321 174.001 176.7 173.255C179.115 172.509 181.228 171.426 183.039 170.006C184.885 168.55 186.395 166.792 187.567 164.732C188.774 162.637 189.608 160.276 190.07 157.648L216.704 157.808C216.242 162.637 214.839 167.396 212.496 172.083C210.187 176.771 207.009 181.05 202.961 184.92C198.912 188.756 193.976 191.81 188.153 194.082C182.364 196.355 175.724 197.491 168.231 197.491C158.358 197.491 149.516 195.325 141.704 190.993C133.927 186.625 127.783 180.268 123.273 171.923C118.763 163.578 116.508 153.422 116.508 141.455C116.508 129.452 118.799 119.278 123.38 110.933C127.961 102.587 134.157 96.2486 141.97 91.9162C149.782 87.5838 158.536 85.4176 168.231 85.4176C174.836 85.4176 180.944 86.3409 186.555 88.1875C192.165 89.9986 197.101 92.6619 201.363 96.1776C205.624 99.6577 209.086 103.937 211.75 109.015C214.413 114.093 216.064 119.899 216.704 126.433Z" fill="#23B7D9"/>
<path d="M62.5283 262C62.5283 260.468 63.1074 258.998 64.1383 257.914C65.1691 256.831 66.5673 256.222 68.0251 256.222H79.0188V244.667C79.0188 243.134 79.598 241.665 80.6288 240.581C81.6597 239.498 83.0578 238.889 84.5157 238.889C85.9736 238.889 87.3717 239.498 88.4026 240.581C89.4334 241.665 90.0126 243.134 90.0126 244.667V256.222H101.006C102.464 256.222 103.862 256.831 104.893 257.914C105.924 258.998 106.503 260.468 106.503 262C106.503 263.532 105.924 265.002 104.893 266.086C103.862 267.169 102.464 267.778 101.006 267.778H90.0126V279.333C90.0126 280.866 89.4334 282.335 88.4026 283.419C87.3717 284.502 85.9736 285.111 84.5157 285.111C83.0578 285.111 81.6597 284.502 80.6288 283.419C79.598 282.335 79.0188 280.866 79.0188 279.333V267.778H68.0251C66.5673 267.778 65.1691 267.169 64.1383 266.086C63.1074 265.002 62.5283 263.532 62.5283 262ZM144.926 279.333C144.926 282.398 143.768 285.337 141.706 287.504C139.644 289.671 136.848 290.889 133.932 290.889C131.017 290.889 128.22 289.671 126.159 287.504C124.097 285.337 122.939 282.398 122.939 279.333C122.939 276.269 124.097 273.329 126.159 271.162C128.22 268.995 131.017 267.778 133.932 267.778C136.848 267.778 139.644 268.995 141.706 271.162C143.768 273.329 144.926 276.269 144.926 279.333ZM144.926 256.222C147.842 256.222 150.638 255.005 152.7 252.838C154.762 250.671 155.92 247.731 155.92 244.667C155.92 241.602 154.762 238.663 152.7 236.496C150.638 234.329 147.842 233.111 144.926 233.111C142.01 233.111 139.214 234.329 137.152 236.496C135.091 238.663 133.932 241.602 133.932 244.667C133.932 247.731 135.091 250.671 137.152 252.838C139.214 255.005 142.01 256.222 144.926 256.222ZM35 262C35 248.209 40.2122 234.982 49.4899 225.23C58.7677 215.479 71.351 210 84.4717 210H139.528C152.649 210 165.232 215.479 174.51 225.23C183.788 234.982 189 248.209 189 262C189 275.791 183.788 289.018 174.51 298.77C165.232 308.521 152.649 314 139.528 314H84.4717C71.351 314 58.7677 308.521 49.4899 298.77C40.2122 289.018 35 275.791 35 262ZM84.4717 221.556C74.2667 221.556 64.4797 225.817 57.2637 233.401C50.0476 240.986 45.9937 251.273 45.9937 262C45.9937 272.727 50.0476 283.014 57.2637 290.599C64.4797 298.183 74.2667 302.444 84.4717 302.444H139.528C149.733 302.444 159.52 298.183 166.736 290.599C173.952 283.014 178.006 272.727 178.006 262C178.006 251.273 173.952 240.986 166.736 233.401C159.52 225.817 149.733 221.556 139.528 221.556H84.4717Z" fill="black"/>
</svg>
